<mxfile host="65bd71144e">
    <diagram id="oHC4MbUsLPKcTJVh_2g_" name="第 1 页">
        <mxGraphModel dx="897" dy="386" grid="1" gridSize="10" guides="1" tooltips="1" connect="1" arrows="1" fold="1" page="1" pageScale="1" pageWidth="1169" pageHeight="827" background="none" math="0" shadow="0">
            <root>
                <mxCell id="0"/>
                <mxCell id="1" parent="0"/>
                <mxCell id="42" value="" style="rounded=0;whiteSpace=wrap;html=1;fillColor=#FAFAFA;fontSize=20;strokeColor=none;shadow=1;glass=0;sketch=1;curveFitting=1;jiggle=2;" parent="1" vertex="1">
                    <mxGeometry x="41" y="58" width="1071" height="461" as="geometry"/>
                </mxCell>
                <mxCell id="15" style="edgeStyle=none;html=1;entryX=0.5;entryY=0;entryDx=0;entryDy=0;exitX=0.5;exitY=1;exitDx=0;exitDy=0;fontSize=20;fontStyle=0" parent="1" source="2" target="5" edge="1">
                    <mxGeometry relative="1" as="geometry">
                        <mxPoint x="290" y="169" as="sourcePoint"/>
                    </mxGeometry>
                </mxCell>
                <mxCell id="16" style="edgeStyle=none;html=1;entryX=0.5;entryY=0;entryDx=0;entryDy=0;exitX=0.5;exitY=1;exitDx=0;exitDy=0;fontSize=20;fontStyle=0" parent="1" source="2" target="9" edge="1">
                    <mxGeometry relative="1" as="geometry">
                        <mxPoint x="315" y="169" as="sourcePoint"/>
                        <Array as="points">
                            <mxPoint x="316" y="250"/>
                        </Array>
                    </mxGeometry>
                </mxCell>
                <mxCell id="32" style="edgeStyle=none;html=1;exitX=0.5;exitY=1;exitDx=0;exitDy=0;entryX=0.5;entryY=0;entryDx=0;entryDy=0;fontSize=20;fontStyle=0" parent="1" source="2" target="6" edge="1">
                    <mxGeometry relative="1" as="geometry">
                        <mxPoint x="303" y="169.0000000000001" as="sourcePoint"/>
                    </mxGeometry>
                </mxCell>
                <mxCell id="33" style="edgeStyle=none;html=1;exitX=0.5;exitY=1;exitDx=0;exitDy=0;entryX=0.5;entryY=0;entryDx=0;entryDy=0;fontSize=20;fontStyle=0" parent="1" source="2" target="7" edge="1">
                    <mxGeometry relative="1" as="geometry"/>
                </mxCell>
                <mxCell id="2" value="&lt;span&gt;&lt;font style=&quot;color: rgb(77, 77, 77);&quot;&gt;业务系统&lt;br&gt;@scope/App1&lt;/font&gt;&lt;/span&gt;" style="rounded=1;whiteSpace=wrap;html=1;spacing=0;labelBackgroundColor=none;fillColor=#cce5ff;strokeColor=#36393d;fontSize=20;shadow=1;glass=0;strokeWidth=0;fontStyle=0" parent="1" vertex="1">
                    <mxGeometry x="234" y="99" width="200" height="70" as="geometry"/>
                </mxCell>
                <mxCell id="34" style="edgeStyle=none;html=1;exitX=0.5;exitY=1;exitDx=0;exitDy=0;entryX=0.5;entryY=0;entryDx=0;entryDy=0;fontSize=20;fontStyle=0" parent="1" source="3" target="7" edge="1">
                    <mxGeometry relative="1" as="geometry"/>
                </mxCell>
                <mxCell id="35" style="edgeStyle=none;html=1;exitX=0.5;exitY=1;exitDx=0;exitDy=0;entryX=0.5;entryY=0;entryDx=0;entryDy=0;fontSize=20;fontStyle=0" parent="1" source="3" target="11" edge="1">
                    <mxGeometry relative="1" as="geometry"/>
                </mxCell>
                <mxCell id="36" style="edgeStyle=none;html=1;exitX=0.5;exitY=1;exitDx=0;exitDy=0;entryX=0.5;entryY=0;entryDx=0;entryDy=0;fontSize=20;fontStyle=0" parent="1" source="3" target="5" edge="1">
                    <mxGeometry relative="1" as="geometry"/>
                </mxCell>
                <mxCell id="37" style="edgeStyle=none;html=1;exitX=0.5;exitY=1;exitDx=0;exitDy=0;entryX=0.5;entryY=0;entryDx=0;entryDy=0;fontSize=20;fontStyle=0" parent="1" source="3" target="9" edge="1">
                    <mxGeometry relative="1" as="geometry">
                        <Array as="points">
                            <mxPoint x="536" y="250"/>
                            <mxPoint x="536" y="319"/>
                        </Array>
                    </mxGeometry>
                </mxCell>
                <mxCell id="3" value="&lt;font style=&quot;color: rgb(77, 77, 77);&quot;&gt;业务系统&lt;br&gt;@scope/App2&lt;/font&gt;" style="rounded=1;whiteSpace=wrap;html=1;spacing=0;labelBackgroundColor=none;fillColor=#cce5ff;strokeColor=#36393d;fontSize=20;shadow=1;glass=0;strokeWidth=0;fontStyle=0" parent="1" vertex="1">
                    <mxGeometry x="511" y="99" width="200" height="70" as="geometry"/>
                </mxCell>
                <mxCell id="4" value="&lt;font style=&quot;color: rgb(77, 77, 77);&quot;&gt;其他业务系统&lt;br&gt;........&lt;/font&gt;" style="rounded=1;whiteSpace=wrap;html=1;spacing=0;labelBackgroundColor=none;fillColor=#cce5ff;strokeColor=#36393d;fontSize=20;shadow=1;glass=0;strokeWidth=0;fontStyle=0" parent="1" vertex="1">
                    <mxGeometry x="804" y="99" width="180" height="70" as="geometry"/>
                </mxCell>
                <mxCell id="19" style="edgeStyle=none;html=1;exitX=0.5;exitY=1;exitDx=0;exitDy=0;entryX=0.5;entryY=0;entryDx=0;entryDy=0;fontSize=20;fontStyle=0" parent="1" source="5" target="9" edge="1">
                    <mxGeometry relative="1" as="geometry"/>
                </mxCell>
                <mxCell id="25" style="edgeStyle=none;html=1;exitX=0.5;exitY=1;exitDx=0;exitDy=0;entryX=0.5;entryY=1;entryDx=0;entryDy=0;fontSize=20;fontStyle=0" parent="1" source="5" target="11" edge="1">
                    <mxGeometry relative="1" as="geometry">
                        <Array as="points">
                            <mxPoint x="342" y="379"/>
                            <mxPoint x="682" y="379"/>
                        </Array>
                    </mxGeometry>
                </mxCell>
                <mxCell id="5" value="&lt;span&gt;&lt;font style=&quot;color: rgb(77, 77, 77);&quot;&gt;公共组件@scope/Compoment&lt;/font&gt;&lt;/span&gt;" style="rounded=1;whiteSpace=wrap;html=1;spacing=0;labelBackgroundColor=none;fillColor=#d5e8d4;strokeColor=#82b366;fontSize=20;shadow=1;glass=0;strokeWidth=0;fontStyle=0" parent="1" vertex="1">
                    <mxGeometry x="56" y="245" width="236" height="75" as="geometry"/>
                </mxCell>
                <mxCell id="26" style="edgeStyle=none;html=1;exitX=0.5;exitY=1;exitDx=0;exitDy=0;entryX=0.5;entryY=1;entryDx=0;entryDy=0;fontSize=20;fontStyle=0" parent="1" source="6" target="11" edge="1">
                    <mxGeometry relative="1" as="geometry">
                        <mxPoint x="772.5" y="293.9999999999999" as="targetPoint"/>
                        <Array as="points">
                            <mxPoint x="552" y="359"/>
                            <mxPoint x="672" y="359"/>
                        </Array>
                    </mxGeometry>
                </mxCell>
                <mxCell id="38" style="edgeStyle=none;html=1;exitX=0.5;exitY=1;exitDx=0;exitDy=0;entryX=0.5;entryY=0;entryDx=0;entryDy=0;fontSize=20;fontStyle=0" parent="1" source="6" target="12" edge="1">
                    <mxGeometry relative="1" as="geometry"/>
                </mxCell>
                <mxCell id="6" value="&lt;span&gt;&lt;font style=&quot;color: rgb(77, 77, 77);&quot;&gt;可视化工具&lt;/font&gt;&lt;/span&gt;&lt;span style=&quot;background-color: transparent;&quot;&gt;&lt;font style=&quot;color: rgb(77, 77, 77);&quot;&gt;@scope/Chart&lt;/font&gt;&lt;/span&gt;" style="rounded=1;whiteSpace=wrap;html=1;spacing=0;labelBackgroundColor=none;fillColor=#d5e8d4;strokeColor=#82b366;fontSize=20;shadow=1;glass=0;strokeWidth=0;fontStyle=0" parent="1" vertex="1">
                    <mxGeometry x="326" y="245" width="180" height="75" as="geometry"/>
                </mxCell>
                <mxCell id="27" style="edgeStyle=none;html=1;exitX=1;exitY=0.5;exitDx=0;exitDy=0;entryX=0;entryY=0.5;entryDx=0;entryDy=0;fontSize=20;fontStyle=0" parent="1" source="7" target="11" edge="1">
                    <mxGeometry relative="1" as="geometry"/>
                </mxCell>
                <mxCell id="29" style="edgeStyle=none;html=1;exitX=0.5;exitY=1;exitDx=0;exitDy=0;entryX=0.5;entryY=0;entryDx=0;entryDy=0;fontSize=20;fontStyle=0" parent="1" source="7" target="13" edge="1">
                    <mxGeometry relative="1" as="geometry"/>
                </mxCell>
                <mxCell id="7" value="&lt;span&gt;&lt;font style=&quot;color: rgb(77, 77, 77);&quot;&gt;日志工具&lt;/font&gt;&lt;/span&gt;&lt;div&gt;&lt;span&gt;&lt;font style=&quot;color: rgb(77, 77, 77);&quot;&gt;@scope/Logs&lt;/font&gt;&lt;/span&gt;&lt;/div&gt;" style="rounded=1;whiteSpace=wrap;html=1;spacing=0;labelBackgroundColor=none;fillColor=#d5e8d4;strokeColor=#82b366;fontSize=20;shadow=1;glass=0;strokeWidth=0;fontStyle=0" parent="1" vertex="1">
                    <mxGeometry x="556" y="245" width="160" height="75" as="geometry"/>
                </mxCell>
                <mxCell id="9" value="&lt;span&gt;&lt;font style=&quot;color: rgb(77, 77, 77);&quot;&gt;第三方库&lt;br&gt;Element-Plus&lt;/font&gt;&lt;/span&gt;" style="rounded=1;whiteSpace=wrap;html=1;spacing=0;labelBackgroundColor=none;fillColor=#fff2cc;strokeColor=#d6b656;fontSize=20;shadow=1;glass=0;strokeWidth=0;fontStyle=0" parent="1" vertex="1">
                    <mxGeometry x="226" y="421" width="148" height="68" as="geometry"/>
                </mxCell>
                <mxCell id="11" value="&lt;span style=&quot;background-color: transparent;&quot;&gt;&lt;font style=&quot;color: rgb(77, 77, 77);&quot;&gt;工具类@scope/Utils&lt;/font&gt;&lt;/span&gt;" style="rounded=1;whiteSpace=wrap;html=1;spacing=0;labelBackgroundColor=none;fillColor=#d5e8d4;strokeColor=#82b366;fontSize=20;shadow=1;glass=0;strokeWidth=0;fontStyle=0" parent="1" vertex="1">
                    <mxGeometry x="762" y="245" width="160" height="75" as="geometry"/>
                </mxCell>
                <mxCell id="12" value="&lt;span&gt;&lt;font style=&quot;color: rgb(77, 77, 77);&quot;&gt;第三方库&lt;br&gt;ECharts&lt;/font&gt;&lt;/span&gt;" style="rounded=1;whiteSpace=wrap;html=1;spacing=0;labelBackgroundColor=none;fillColor=#fff2cc;strokeColor=#d6b656;fontSize=20;shadow=1;glass=0;strokeWidth=0;fontStyle=0" parent="1" vertex="1">
                    <mxGeometry x="422" y="422" width="129" height="67" as="geometry"/>
                </mxCell>
                <mxCell id="13" value="&lt;span&gt;&lt;font style=&quot;color: rgb(77, 77, 77);&quot;&gt;第三方库&lt;br&gt;log4j&lt;/font&gt;&lt;/span&gt;" style="rounded=1;whiteSpace=wrap;html=1;spacing=0;labelBackgroundColor=none;fillColor=#fff2cc;strokeColor=#d6b656;fontSize=20;shadow=1;glass=0;strokeWidth=0;fontStyle=0" parent="1" vertex="1">
                    <mxGeometry x="612" y="422" width="129" height="67" as="geometry"/>
                </mxCell>
                <mxCell id="14" value="&lt;span&gt;&lt;font style=&quot;color: rgb(77, 77, 77);&quot;&gt;其他第三方库&lt;br&gt;.......&lt;/font&gt;&lt;/span&gt;" style="rounded=1;whiteSpace=wrap;html=1;spacing=0;labelBackgroundColor=none;fillColor=#fff2cc;strokeColor=#d6b656;fontSize=20;shadow=1;glass=0;strokeWidth=0;fontStyle=0" parent="1" vertex="1">
                    <mxGeometry x="824" y="421" width="150" height="63" as="geometry"/>
                </mxCell>
                <mxCell id="41" value="&lt;span style=&quot;background-color: transparent;&quot;&gt;&lt;font style=&quot;color: rgb(77, 77, 77);&quot;&gt;其他工具库&lt;br&gt;.......&lt;/font&gt;&lt;/span&gt;" style="rounded=1;whiteSpace=wrap;html=1;spacing=0;labelBackgroundColor=none;fillColor=#d5e8d4;strokeColor=#82b366;fontSize=20;shadow=1;glass=0;strokeWidth=0;fontStyle=0" parent="1" vertex="1">
                    <mxGeometry x="962" y="245" width="140" height="75" as="geometry"/>
                </mxCell>
            </root>
        </mxGraphModel>
    </diagram>
</mxfile>